<svg xmlns="http://www.w3.org/2000/svg" fill="#eda251" width="393.1144" height="157.7532" viewBox="0 0 393.1144 157.7532">
  <g id="katman_2" data-name="katman 2">
    <g id="katman_1-2" data-name="katman 1">
      <g id="Szi5Xk">
        <path d="M15.1576,78.97C11.67,72.9252,7.7868,67.2582,5.0178,60.938-7.0371,33.4232,3.3421,10.6047,32.4031,2.725,50.6794-2.23,68.4983-.6951,84.4065,10.94A33.1591,33.1591,0,0,1,97.3435,29c1.083,3.9436,2.7461,5.3051,6.783,5.2931q65.5529-.1943,131.1065-.1151c17.5172-.0032,35.0358-.0945,52.5507.1152,4.2522.0509,6.6247-.5791,7.9435-5.4021,2.8465-10.4094,10.0163-17.8646,19.6351-22.2786,21.0046-9.6388,41.8273-8.9913,61.5062,3.5962,13.7878,8.8192,19.2671,25.1157,14.6285,40.8877a88.3707,88.3707,0,0,1-13.553,27.2571c3.1659,5.7921,6.589,11.2149,9.2147,17,13.8753,30.5687.4733,55.8829-32.79,61.098-19.44,3.0478-37.6715.1969-51.8858-15.3331-2.7346-2.9877-5.2866-6.33-6.0349-10.2057-1.2256-6.3483-4.6646-7.5106-10.6615-7.4878q-90.158.3438-180.3177.0472c-4.4858-.0091-7.0518.6119-8.4233,5.7462-3.1539,11.8063-11.9338,19.3861-22.7076,23.6328-16.9321,6.674-34.2857,6.7627-51.0678-1.1515-20.39-9.6155-27.8374-27.79-20.5248-49.1864C5.6391,94.0464,10.1875,86.4528,15.1576,78.97Z"/>
      </g>
    </g>
  </g>
</svg>
