<svg xmlns="http://www.w3.org/2000/svg" width="284" height="81" fill="none" viewBox="0 0 334 131"><path fill="#fff" d="m333.403 44.915-.681-1.688c-1.316-3.245-4.488-5.342-8.08-5.342-.421 0-.835.039-1.242.097.133-.727.207-1.473.193-2.233-.04-2.57-.981-4.557-1.696-5.83-2.19-3.933-4.38-7.874-6.564-11.814-2.13-3.837-4.267-7.68-6.404-11.516C306.599 2.402 302.752 0 298.378 0c-1.816 0-3.679.415-5.535 1.227-5.87 2.57-10.044 6.978-12.14 12.801 0-.013-.014-.032-.02-.045-2.231-6.063-6.665-10.568-12.821-13.035-1.55-.617-3.132-.935-4.708-.935-2.558 0-5.062.844-7.225 2.434-1.97 1.448-2.972 3.26-3.513 4.233-3.105 5.602-6.21 11.198-9.315 16.794l-2.678 4.823c-.12.214-.24.422-.361.63a34.11 34.11 0 0 0-1.128 2.096c-1.082 2.272-1.362 4.687-.955 6.953a8.465 8.465 0 0 0-1.222-.091c-3.593 0-6.758 2.097-8.08 5.342l-.681 1.688c-.094.24-.174.474-.247.714-1.823-1.227-3.88-2.265-6.184-3.096a35.921 35.921 0 0 0-12.213-2.117c-1.903 0-3.853.15-5.79.436-8.928 1.324-16.133 5.173-21.288 11.256l-.942-1.837c-1.475-2.883-4.453-4.674-7.772-4.674a8.87 8.87 0 0 0-3.873.89l-4.775 2.31v-.253c0-4.654-3.893-8.439-8.681-8.439h-4.02c4.481-2.655 9.342-4.356 14.691-5.128a8.77 8.77 0 0 0 6.818 3.226h1.863c4.788 0 8.681-3.785 8.681-8.44v-9.99c0-4.654-3.893-8.439-8.681-8.439h-3.866c-.321 0-.641.02-.955.065-3.419.143-6.578.494-9.629 1.084-16.608 3.194-30.177 11.503-40.313 24.7a64.654 64.654 0 0 0-6.444 10.206v-.559c0-5.011-4.194-9.088-9.349-9.088h-3.058c-.181-2.103-1.102-4.057-2.645-5.583-1.763-1.74-4.113-2.707-6.63-2.72l-5.076-.02c-5.015.066-9.014 3.837-9.255 8.654-2.918.78-5.269 2.895-6.304 5.628-.06-.02-.113-.045-.166-.065a35.926 35.926 0 0 0-12.214-2.116c-.528 0-1.062.013-1.596.033.007-.416.007-.825.007-1.247v-.175c-.047-1.597-.14-3.467-.501-5.265-1.61-9.036-7.018-15.924-15.646-19.929-6.938-3.233-19.492-3.583-24.567-3.583h-.414a75.527 75.527 0 0 0-8.908.623c-2.524.338-4.748 1.616-6.25 3.61-1.496 1.999-2.097 4.446-1.67 6.9l.828 4.771c.561 3.252 2.832 5.842 5.83 6.966v60.274c0 5.011 4.194 9.088 9.349 9.088h4.955c5.155 0 9.348-4.077 9.348-9.088v-3.33c5.282 7.394 14.077 13.152 25.983 13.152a37.92 37.92 0 0 0 5.496-.409c5.703-.831 11.385-2.792 17.368-5.999.775-.415 1.55-.837 2.324-1.285a8.564 8.564 0 0 0 2.17-1.798 22.304 22.304 0 0 0 5.95 5.55c3.746 2.37 7.786 3.571 12.013 3.571 3.072 0 6.15-.65 9.155-1.922a9.333 9.333 0 0 0 2.358-1.435c6.824 15.385 19.231 25.103 37 28.933 4.615.994 9.349 1.474 14.484 1.474 4.755 0 9.843-.422 15.552-1.298 7.767-1.188 15.873-3.46 24.775-6.946 1.943-.76 3.886-1.558 5.762-2.324 3.346-1.37 6.504-2.662 9.743-3.804 5.128-1.805 9.416-2.649 13.489-2.649.521 0 1.048.013 1.556.046 3.993.22 7.319 1.311 10.157 3.336 1.796 1.279 3.305 2.869 4.614 4.856 1.609 2.441 4.34 3.895 7.318 3.895a8.87 8.87 0 0 0 3.914-.909l5.749-2.83c2.164-1.065 3.786-2.98 4.441-5.252a8.22 8.22 0 0 0-.969-6.706 42.602 42.602 0 0 0-5.529-6.972c.134 0 .274.013.408.013 5.589 0 10.664-1.688 14.971-4.927 4.314 3.239 9.389 4.927 14.971 4.927 2.364 0 4.855-.305 7.399-.902 7.038-1.655 13.322-5.635 18.664-11.821 5.937-6.875 9.522-15.054 10.651-24.305.528-4.35.427-8.744-.301-13.12a8.37 8.37 0 0 0 1.196-1.934 8.164 8.164 0 0 0 .113-6.459h.014Z"/><path fill="#F28A1A" d="M296.696 20.02c.581.227.681.701.888 1.071 2.858 5.142 5.709 10.283 8.56 15.424.441.792.849 1.603 1.369 2.344 1.309 1.856 3.68 2.603 5.837 1.895 2.21-.727 3.592-2.642 3.559-4.901-.014-1.032-.394-1.941-.888-2.83-4.327-7.77-8.641-15.554-12.968-23.325-1.703-3.064-4.254-3.946-7.473-2.538-4.514 1.974-7.499 5.31-8.881 9.952-.561 1.876-.835 3.81-.935 5.764-.066 1.266-.066 1.28-1.422 1.28-2.411.006-4.815.006-7.225 0-1.429 0-1.436-.014-1.503-1.364-.107-2.26-.434-4.48-1.215-6.615-1.616-4.388-4.661-7.452-9.082-9.218-1.916-.766-3.706-.539-5.362.675-.754.558-1.215 1.33-1.663 2.13-3.993 7.212-7.999 14.417-11.999 21.623-.441.792-.915 1.564-1.302 2.382-1.182 2.474-.248 5.317 2.143 6.615 2.411 1.305 5.342.59 6.891-1.694.254-.377.454-.78.675-1.175 2.971-5.362 5.943-10.73 8.935-16.08.273-.487.4-1.123 1.088-1.395.561 1.876.568 3.72.554 5.563-.013 1.649.408 3.168 1.322 4.544 1.897 2.863 4.722 4.064 8.087 4.116 4.047.065 8.093.026 12.14.006.614 0 1.229-.078 1.83-.175 3.826-.636 6.731-3.44 7.385-7.102.16-.896.054-1.798.087-2.694.047-1.428.073-2.856.561-4.265l.007-.013Z"/><path fill="#7C4796" d="M264.362 116.576c1.042-.513 1.423-1.785.808-2.753-7.545-11.879-20.093-17.287-33.909-16.39-5.97.389-11.679 1.81-17.261 3.829-5.757 2.077-11.339 4.564-17.055 6.738-9.77 3.727-19.853 6.018-30.377 6.336-4.534.123-9.115-.247-13.362-1.194-10.043-2.233-17.923-7.433-22.844-16.366-5.015-9.107-6.404-18.948-4.788-29.023 2.11-13.14 9.102-23.578 20.22-31.316 7.719-5.375 16.434-8.036 25.903-8.4h.026v1.72c0 1.078.895 1.948 2.004 1.948h1.863c1.108 0 2.003-.87 2.003-1.948v-9.99c0-1.078-.895-1.948-2.003-1.948h-3.867v.04c-3.118.097-6.223.402-9.288.986-15.012 2.882-27.112 10.309-36.26 22.214-6.19 8.063-10.03 17.105-11.245 27.122-.935 7.719-.281 15.372 1.903 22.83 5.088 17.366 16.634 28.239 34.864 32.167 9.162 1.973 18.364 1.512 27.545.104 8.054-1.234 15.78-3.603 23.325-6.557 5.249-2.051 10.398-4.336 15.72-6.212 5.722-2.019 11.565-3.324 17.702-2.987 5.022.273 9.649 1.669 13.729 4.584 2.545 1.817 4.608 4.037 6.284 6.582a2.031 2.031 0 0 0 2.591.695l5.749-2.831.02.02Z"/><path fill="#7C4796" d="M224.998 81.976c-.588-.877-1.783-1.143-2.705-.604-2.918 1.688-5.963 3.129-9.235 4.096-3.305.974-6.651 1.441-10.11.805-6.397-1.181-11.746-7.277-11.419-13.574.307-5.907 2.985-10.646 8.521-13.548 4.08-2.142 8.447-2.389 12.928-1.707 1.482.227 2.911.643 4.227 1.376 1.783 1 2.851 2.467 3.105 4.466.327 2.558-.955 4.207-3.579 4.622-1.289.202-2.558.026-3.82-.181a82.232 82.232 0 0 1-6.631-1.39c-1.048-.266-2.117.344-2.417 1.357l-1.75 5.998c-.3 1.039.321 2.123 1.396 2.409.481.13.968.253 1.456.37 3.686.857 7.379 1.778 11.205 1.662 9.035-.273 16.14-6.979 14.29-17.164-1.135-6.232-5.222-10.192-11.198-12.347-4.748-1.714-9.69-2.09-14.678-1.35-10.19 1.512-17.515 6.757-21.495 16.105-1.87 4.389-2.651 8.965-1.643 13.71 2.391 11.224 13.015 21.663 29.161 19.313 5.403-.786 10.384-2.72 15.139-5.265a63.299 63.299 0 0 0 2.13-1.181 1.913 1.913 0 0 0 .641-2.733l-3.519-5.239v-.006ZM178.301 58.911l-2.945-5.739c-.494-.96-1.696-1.356-2.684-.876l-14.431 6.992V48.544c0-1.078-.895-1.947-2.003-1.947h-6.598c-1.108 0-2.003.87-2.003 1.947v46.623c0 1.077.895 1.947 2.003 1.947h6.598c1.108 0 2.003-.87 2.003-1.948V70.805l19.158-9.283c.989-.48 1.396-1.65.902-2.61Z"/><path fill="#F28A1A" d="M67.058 69.005c-1.289.202-2.558.026-3.82-.181a82.23 82.23 0 0 1-6.63-1.39 2.007 2.007 0 0 0-2.418 1.357l-1.75 5.998c-.3 1.04.321 2.123 1.396 2.409.48.13.968.253 1.456.37 3.686.857 7.379 1.779 11.205 1.662 9.035-.273 16.14-6.979 14.29-17.164-1.135-6.232-5.222-10.192-11.198-12.347-4.748-1.714-9.69-2.09-14.678-1.35a33.76 33.76 0 0 0-5.075 1.149c.888-2.26 1.416-4.726 1.556-7.368.047-.565.047-1.15.047-1.844-.04-1.35-.114-2.914-.394-4.258-1.229-7.005-5.256-12.14-11.967-15.256-6.377-2.973-20.44-2.947-22.022-2.94a68.245 68.245 0 0 0-8.074.565 2.66 2.66 0 0 0-1.776 1.025 2.497 2.497 0 0 0-.48 1.974l.827 4.764c.24 1.383 1.55 2.325 2.978 2.143a58.379 58.379 0 0 1 2.945-.299v66.474c0 1.434 1.196 2.596 2.671 2.596h4.955c1.476 0 2.671-1.161 2.671-2.596V64.293c2.878-.286 6.938-.942 10.658-1.935a30.092 30.092 0 0 0-1.008 2.123c-1.87 4.388-2.652 8.965-1.643 13.71 2.39 11.224 13.015 21.662 29.161 19.313 5.402-.786 10.384-2.72 15.138-5.265a62.453 62.453 0 0 0 2.13-1.182 1.913 1.913 0 0 0 .642-2.733l-3.52-5.238c-.587-.877-1.782-1.143-2.704-.604-2.918 1.688-5.963 3.129-9.235 4.096-3.306.974-6.651 1.441-10.11.805-6.397-1.181-11.746-7.277-11.419-13.574.307-5.907 2.985-10.646 8.52-13.548 4.08-2.142 8.448-2.389 12.929-1.707 1.482.227 2.911.643 4.227 1.376 1.783 1 2.851 2.467 3.105 4.466.327 2.558-.955 4.207-3.58 4.622l-.006-.013ZM23.76 28.265c.554.058 1.209.123 1.93.188 2.958.279 7.432.7 8.948 1.389 3.492 1.61 5.596 4.258 6.257 7.868.16.863.247 1.772.247 2.694 0 .37 0 .753-.04 1.207-.22 4.168-1.943 7.38-5.122 9.543-2.003 1.415-8.294 2.544-12.213 3.057V28.264h-.007Z"/><path fill="#F28A1A" d="m109.628 92.641-1.983-4.369a2.624 2.624 0 0 0-1.489-1.376 2.696 2.696 0 0 0-2.024.052c-1.809.792-3.445.662-5.148-.402-3.079-1.96-5.863-11.503-4.695-27.817.067-.85.12-1.72.174-2.583l.12-1.85h10.457c1.476 0 2.671-1.163 2.671-2.597v-4.856c0-1.434-1.195-2.596-2.671-2.596h-9.87a187.5 187.5 0 0 0 .168-5.687 2.528 2.528 0 0 0-.761-1.837c-.501-.5-1.176-.78-1.897-.78l-4.955-.019c-1.456.02-2.664 1.15-2.684 2.578-.027 1.778-.08 3.667-.174 5.758h-4.033c-1.476 0-2.671 1.162-2.671 2.596v4.856c0 1.434 1.195 2.596 2.67 2.596h3.413c-.033.507-.067 1.02-.107 1.526-.053.747-.107 1.5-.147 2.24-1.402 19.916 1.663 31.977 9.376 36.885 2.65 1.675 5.476 2.519 8.374 2.519 2.136 0 4.313-.461 6.484-1.377a2.614 2.614 0 0 0 1.435-1.454c.261-.649.247-1.35-.04-1.986l.007-.02ZM271.922 47.252a4.584 4.584 0 0 0-2.752 1.02c.508.227.862.72.862 1.298 0 .785-.655 1.428-1.469 1.428-.361 0-.688-.13-.942-.344a4.032 4.032 0 0 0-.133 1.025c0 2.409 2.156 4.447 4.634 4.382 2.451-.058 4.447-2.051 4.427-4.42-.02-2.428-2.157-4.46-4.621-4.395l-.006.006ZM289.137 47.252a4.584 4.584 0 0 0-2.752 1.02c.508.227.862.72.862 1.298 0 .785-.655 1.428-1.469 1.428-.361 0-.688-.13-.942-.344a4.032 4.032 0 0 0-.133 1.025c0 2.409 2.156 4.447 4.634 4.382 2.451-.058 4.447-2.051 4.427-4.42-.02-2.428-2.157-4.46-4.621-4.395l-.006.006Z"/><path fill="#7C4796" d="m327.186 47.291-.681-1.688c-.408-1-1.57-1.493-2.598-1.097l-.674.26-8.247 3.155c-.942.363-1.463 1.357-1.202 2.31.093.338.18.663.253.897 2.952 9.73 1.89 18.89-4.12 27.316-2.257 3.168-5.141 5.68-8.801 7.27-2.036.884-4.167 1.286-6.397 1.026-2.377-.279-4.18-1.473-5.536-3.35-1.783-2.479-2.644-5.303-3.185-8.237-.167-.922-.247-1.857-.367-2.791 4.247-.831 7.212-2.694 7.212-4.863 0-2.94-5.436-5.323-12.14-5.323-6.705 0-12.14 2.383-12.14 5.323 0 2.169 2.965 4.032 7.212 4.863-.121.928-.194 1.87-.368 2.791-.541 2.928-1.402 5.758-3.185 8.238-1.349 1.876-3.159 3.07-5.536 3.35-2.23.26-4.36-.137-6.397-1.026-3.659-1.59-6.544-4.103-8.801-7.27-6.01-8.433-7.072-17.593-4.12-27.317.073-.234.16-.559.254-.896.26-.954-.261-1.948-1.202-2.311l-8.247-3.162-.675-.253c-1.028-.396-2.19.098-2.597 1.097l-.681 1.688c-.408 1 .1 2.13 1.128 2.525l1.422.546c-1.335 4.992-1.756 10.081-1.121 15.294.954 7.835 3.906 14.846 9.128 20.89 4.04 4.674 8.921 8.231 15.125 9.692 8.287 1.947 15.318.02 20.647-6.732.053-.065.107-.143.154-.214.053.071.106.142.153.214 5.329 6.751 12.361 8.68 20.648 6.732 6.196-1.461 11.084-5.012 15.124-9.692 5.222-6.05 8.181-13.061 9.129-20.89.634-5.22.213-10.309-1.122-15.294l1.422-.546c1.029-.396 1.536-1.525 1.129-2.525Zm-50.303 17.65c-2.284.384-3.746 1.013-4.868 1.578a.677.677 0 0 1-.901-.28.645.645 0 0 1 .287-.875c1.215-.61 2.784-1.292 5.248-1.708a.675.675 0 0 1 .775.526c.06.35-.18.688-.541.753v.007Zm2.831-.317a.764.764 0 0 1-.774-.753c0-.416.347-.753.774-.753.428 0 .775.337.775.753a.764.764 0 0 1-.775.753Z"/></svg>